<?xml version="1.0" encoding="iso-8859-1"?>
<!-- Generator: Adobe Illustrator 19.0.0, SVG Export Plug-In . SVG Version: 6.00 Build 0)  -->
<svg version="1.1" id="Layer_1" xmlns="http://www.w3.org/2000/svg" xmlns:xlink="http://www.w3.org/1999/xlink" x="0px" y="0px"
	 viewBox="0 0 512 512" style="enable-background:new 0 0 512 512;" xml:space="preserve">
<g>
	<g>
		<path d="M498.041,214.11L456.876,90.605c-3.16-9.445-10.395-17.038-19.488-20.68L268.589,2.4
			c-4.016-1.582-8.214-2.384-12.439-2.384c-4.747-0.148-8.445,0.747-12.632,2.396L74.753,69.919
			c-9.23,3.692-16.339,11.22-19.493,20.652c-0.006,0.011-0.006,0.017-0.006,0.022L13.96,214.483
			c-1.725,5.159-0.852,10.835,2.346,15.241c3.175,4.378,8.258,6.972,13.665,6.972c0.027,0,0.061,0,0.088,0l35.652-0.187
			c7.231-0.038,13.637-4.681,15.922-11.538l32.729-98.165l141.702-56.684l141.702,56.684l32.663,97.978
			c2.297,6.89,8.746,11.538,16.011,11.538h35.592c5.422,0,10.522-2.609,13.692-7.01C498.897,224.912,499.76,219.253,498.041,214.11z
			"/>
	</g>
</g>
<g>
	<g>
		<path d="M446.442,270.079c-21.801,0-41.107-13.895-48.031-34.576l-27.724-83.171l-114.63-45.855l-114.62,45.855l-27.789,83.32
			c-6.857,20.587-26.053,34.498-47.755,34.614l-29.139,0.153v190.947c0,27.921,22.601,50.635,50.522,50.635H424.84
			c27.921,0,50.634-22.714,50.634-50.635V270.079H446.442z M205.422,180.062L205.422,180.062c0-9.324,7.56-16.878,16.878-16.878
			h67.513c9.318,0,16.991,7.555,16.991,16.878v67.513c0,9.324-7.673,16.878-16.991,16.878H222.3
			c-9.318,0-16.878-7.555-16.878-16.878V180.062z M316.581,309.461l-60.524,60.524l-60.524-60.524H316.581z M171.665,333.328
			l60.524,60.524l-60.524,60.524V333.328z M195.532,478.244l60.524-60.524l60.524,60.524H195.532z M340.56,454.377l-60.637-60.524
			l60.637-60.524V454.377z"/>
	</g>
</g>
<g>
</g>
<g>
</g>
<g>
</g>
<g>
</g>
<g>
</g>
<g>
</g>
<g>
</g>
<g>
</g>
<g>
</g>
<g>
</g>
<g>
</g>
<g>
</g>
<g>
</g>
<g>
</g>
<g>
</g>
</svg>
