<?xml version="1.0" encoding="iso-8859-1"?>
<!-- Generator: Adobe Illustrator 19.0.0, SVG Export Plug-In . SVG Version: 6.00 Build 0)  -->
<svg version="1.1" id="Layer_1" xmlns="http://www.w3.org/2000/svg" xmlns:xlink="http://www.w3.org/1999/xlink" x="0px" y="0px"
	 viewBox="0 0 512 512" style="enable-background:new 0 0 512 512;" xml:space="preserve">
<g>
	<g>
		<path d="M495.275,94.83l-54.232,0.001l42.409-42.409c6.531-6.529,6.531-17.122-0.001-23.65c-6.532-6.532-17.117-6.534-23.649,0
			l-42.409,42.409l0.001-54.233c0-9.24-7.491-16.725-16.724-16.725s-16.724,7.486-16.724,16.725v59.731
			c-48.101-31.2-104.6-33.011-137.006-0.603c-4.298,4.297-11.958,13.137-21.956,25.353l33.777,33.777
			c6.532,6.528,6.532,17.122,0,23.65c-3.267,3.267-7.546,4.899-11.824,4.9c-4.279-0.001-8.558-1.635-11.824-4.901l-31.126-31.125
			c-17.772,22.689-38.961,50.712-60.847,81.069l44.665,44.665c6.532,6.527,6.531,17.121,0,23.648c-3.268,3.267-7.546,4.9-11.826,4.9
			c-4.278,0.001-8.557-1.632-11.823-4.899l-40.663-40.662c-8.856,12.637-17.681,25.452-26.275,38.285
			C-14.375,441.341-7.788,483.598,10.415,501.802c34.382,34.414,136.211-29.088,180.104-56.42l-26.361-26.361
			c-6.531-6.526-6.532-17.121,0-23.648c6.532-6.532,17.114-6.532,23.648-0.001l31.588,31.588
			c37.628-24.582,75.223-51.107,111.36-77.859l-24.69-24.687c-6.535-6.528-6.531-17.116,0.001-23.648
			c6.532-6.532,17.117-6.534,23.648-0.001l28.07,28.064c39.368-29.923,69.197-54.384,78.36-63.546
			c19.719-19.719,27.623-48.348,22.244-80.626c-3.22-19.303-11.08-38.568-22.706-56.378l59.595-0.001
			c9.234,0.001,16.724-7.486,16.724-16.724C512,102.316,504.509,94.831,495.275,94.83z"/>
	</g>
</g>
<g>
</g>
<g>
</g>
<g>
</g>
<g>
</g>
<g>
</g>
<g>
</g>
<g>
</g>
<g>
</g>
<g>
</g>
<g>
</g>
<g>
</g>
<g>
</g>
<g>
</g>
<g>
</g>
<g>
</g>
</svg>
