<?xml version="1.0" encoding="iso-8859-1"?>
<!-- Generator: Adobe Illustrator 19.0.0, SVG Export Plug-In . SVG Version: 6.00 Build 0)  -->
<svg version="1.1" id="Layer_1" xmlns="http://www.w3.org/2000/svg" xmlns:xlink="http://www.w3.org/1999/xlink" x="0px" y="0px"
	 viewBox="0 0 512 512" style="enable-background:new 0 0 512 512;" xml:space="preserve">
<g>
	<g>
		<path d="M499.312,69.938l-57.25-57.25c-16.915-16.915-44.439-16.919-61.357,0l-28.626,28.625c-6.548,6.548-6.552,17.169,0,23.721
			l23.72,23.721L197.889,266.668l47.444,47.443l177.912-177.912l23.721,23.721c6.552,6.552,17.174,6.548,23.721,0l28.625-28.625
			C516.231,114.377,516.227,86.852,499.312,69.938z M475.59,107.574l-16.764,16.765l-71.164-71.165l16.763-16.764
			c3.839-3.838,10.078-3.838,13.915,0l57.25,57.25C479.429,97.497,479.429,103.737,475.59,107.574z"/>
	</g>
</g>
<g>
	<g>
		<path d="M289.529,412.24L99.76,222.467c-13.082-13.08-34.364-13.08-47.444,0c-8.741,8.741-11.502,21.111-8.561,32.283
			L4.912,293.595c-6.546,6.548-6.552,17.17,0,23.721c6.552,6.552,17.174,6.548,23.721,0l35.543-35.543l23.721,23.721l-35.543,35.543
			c-6.548,6.548-6.552,17.17,0,23.721c6.552,6.552,17.174,6.548,23.721,0l35.543-35.543l23.721,23.721L99.797,388.48
			c-6.55,6.548-6.552,17.17,0,23.721s17.172,6.548,23.721,0l35.543-35.543l23.721,23.721l-35.543,35.543
			c-6.55,6.548-6.552,17.169,0,23.721s17.172,6.548,23.721,0l35.543-35.543l23.721,23.721l-35.545,35.543
			c-6.548,6.548-6.551,17.17,0,23.721c6.552,6.552,17.174,6.548,23.721,0l38.842-38.843c11.171,2.941,23.542,0.18,32.284-8.561
			C302.61,446.602,302.61,425.32,289.529,412.24z"/>
	</g>
</g>
<g>
</g>
<g>
</g>
<g>
</g>
<g>
</g>
<g>
</g>
<g>
</g>
<g>
</g>
<g>
</g>
<g>
</g>
<g>
</g>
<g>
</g>
<g>
</g>
<g>
</g>
<g>
</g>
<g>
</g>
</svg>
